<svg width="112" height="1024" viewBox="0 0 112 1024" fill="none" xmlns="http://www.w3.org/2000/svg">
<g filter="url(#filter0_d_1916_13458)">
<rect width="88" height="1024" fill="white"/>
<rect x="16" y="16" width="56" height="56" rx="14" fill="#615EF0"/>
<path d="M49.586 55.316C49.53 55.316 49.313 55.239 48.935 55.085C48.571 54.945 48.326 54.854 48.2 54.812C47.206 54.406 44.77 53.44 40.892 51.914C39.646 51.424 38.694 50.584 38.036 49.394C37.392 48.204 37.07 46.706 37.07 44.9C37.07 42.478 37.651 40.623 38.813 39.335C39.975 38.033 41.641 37.382 43.811 37.382C45.981 37.382 47.64 38.033 48.788 39.335C49.95 40.623 50.531 42.478 50.531 44.9C50.531 46.552 50.244 47.945 49.67 49.079C49.11 50.213 48.298 51.053 47.234 51.599V51.683L50.447 52.838C50.643 52.908 50.741 53.02 50.741 53.174C50.741 53.314 50.685 53.559 50.573 53.909C50.461 54.273 50.314 54.595 50.132 54.875C49.964 55.169 49.782 55.316 49.586 55.316ZM43.811 49.751C44.931 49.751 45.778 49.338 46.352 48.512C46.926 47.686 47.213 46.482 47.213 44.9C47.213 43.346 46.926 42.17 46.352 41.372C45.778 40.56 44.931 40.154 43.811 40.154C42.691 40.154 41.837 40.56 41.249 41.372C40.675 42.17 40.388 43.346 40.388 44.9C40.388 46.482 40.675 47.686 41.249 48.512C41.837 49.338 42.691 49.751 43.811 49.751Z" fill="white"/>
<path d="M57.2188 131.438L44.5156 120.188C44.3281 120.094 44.1406 120.047 44 120.047C43.8125 120.047 43.625 120.094 43.4844 120.188L30.7344 131.438C30.5469 131.625 30.5 131.812 30.5 132C30.5 132.422 30.8281 132.75 31.25 132.75C31.3906 132.75 31.5781 132.703 31.7188 132.562L33.5 131.016V140.25C33.5 142.312 35.1406 143.953 37.25 143.953H50.7031C52.7656 143.953 54.4531 142.266 54.4531 140.25V131.016L56.2344 132.562C56.375 132.703 56.5625 132.75 56.7031 132.75C57.0781 132.75 57.4531 132.422 57.4531 132.047C57.4531 131.812 57.4062 131.625 57.2188 131.438ZM46.25 142.5H41.75V135H46.25V142.5ZM52.9531 129.75V140.25C52.9531 141.516 51.9219 142.5 50.7031 142.5H47.7031V134.766C47.75 134.062 47.1875 133.5 46.4844 133.5H41.5156C40.8125 133.5 40.25 134.062 40.25 134.766V142.5H37.25C35.9844 142.5 35 141.516 35 140.25V129.75C35 129.75 34.9531 129.75 34.9531 129.703L44 121.781L53 129.703C53 129.75 52.9531 129.75 52.9531 129.75Z" fill="black"/>
<path d="M48.5 188V179C48.5 177.359 47.1406 176 45.5 176H32C30.3125 176 29 177.359 29 179V188C29 189.688 30.3125 191 32 191L33.5 191.047V193.438C33.5 193.812 33.7344 194 34.0625 194C34.1562 194 34.25 194 34.3906 193.906L39.5 191H45.5C47.1406 191 48.5 189.688 48.5 188ZM38.8906 188.75L35.75 190.578V188.75H32C31.5781 188.75 31.25 188.422 31.25 188V179C31.25 178.625 31.5781 178.25 32 178.25H45.5C45.875 178.25 46.25 178.625 46.25 179V188C46.25 188.422 45.875 188.75 45.5 188.75H38.8906ZM56 182H50V188C50 190.484 47.9375 192.5 45.5 192.5H41V194C41 195.688 42.3125 197 43.9531 197H49.8125L53.7031 199.906C54.0312 200.141 54.5 199.953 54.5 199.578V197H56C57.6406 197 59 195.688 59 194.047V185C59 183.359 57.6406 182 56 182Z" fill="#615EF0"/>
<path d="M56.7031 245.5L47.4219 245.547C46.7188 245.547 46.3906 246.344 46.8594 246.812L53 252.953C53.2344 253.141 53.6562 253.281 54.0312 252.953C55.8594 251.266 57.0781 248.969 57.4531 246.344C57.5469 245.922 57.1719 245.5 56.7031 245.5ZM53.5156 251.359L49.2031 247H55.8125C55.4375 248.641 54.6406 250.094 53.5156 251.359ZM42.5 245.5V234.391C42.5 233.969 42.125 233.641 41.75 233.641C41.7031 233.641 41.6562 233.641 41.6562 233.641C36.0781 234.438 31.7656 239.266 32.0469 245.172C32.1875 251.125 37.2969 256 43.25 256C43.2969 256 43.2969 256 43.3438 256C45.7344 256 47.8906 255.25 49.7188 253.938C50.0938 253.703 50.0938 253.141 49.7656 252.812L42.5 245.5ZM43.3438 254.5C37.9062 254.5 33.6406 250.047 33.5 245.125C33.3125 240.438 36.5 236.359 41 235.281V245.5C41 245.922 41.1406 246.297 41.4219 246.578L48.0781 253.234C46.625 254.078 45.0312 254.5 43.3438 254.5ZM55.9531 242.5C55.5312 236.875 51.0781 232.469 45.4531 232C44.9844 232 44.7031 232.422 44.7031 232.797V242.5C44.7031 242.922 45.0312 243.25 45.4531 243.25H55.1562C55.625 243.25 56 242.922 55.9531 242.5ZM46.2031 241.75V233.594C50.4219 234.25 53.75 237.578 54.4062 241.75H46.2031Z" fill="black"/>
<path d="M55.7656 310.734L49.1094 304.125C50.6094 302.391 51.4531 300.188 51.4531 297.75C51.4531 292.406 47.0469 288 41.7031 288C36.3125 288 32 292.406 32 297.75C32 303.141 36.3594 307.5 41.7031 307.5C44.0938 307.5 46.2969 306.656 48.0312 305.156L54.6406 311.812C54.8281 311.953 55.0156 312 55.25 312C55.4375 312 55.625 311.953 55.7656 311.812C56.0469 311.531 56.0469 311.016 55.7656 310.734ZM41.75 306C37.1562 306 33.5 302.297 33.5 297.75C33.5 293.203 37.1562 289.5 41.75 289.5C46.2969 289.5 50 293.203 50 297.75C50 302.344 46.2969 306 41.75 306Z" fill="black"/>
<path d="M51.5 347H50V344.75C50 344.375 49.625 344 49.25 344C48.8281 344 48.5 344.375 48.5 344.75V347H39.5V344.75C39.5 344.375 39.125 344 38.75 344C38.3281 344 38 344.375 38 344.75V347H36.5C34.8125 347 33.5 348.359 33.5 350V365C33.5 366.688 34.8125 368 36.5 368H51.5C53.1406 368 54.5 366.688 54.5 365V350C54.5 348.359 53.1406 347 51.5 347ZM53 365C53 365.844 52.2969 366.5 51.5 366.5H36.5C35.6562 366.5 35 365.844 35 365V353H53V365ZM53 351.5H35V350C35 349.203 35.6562 348.5 36.5 348.5H51.5C52.2969 348.5 53 349.203 53 350V351.5ZM38 362H42.5C43.2969 362 44 361.344 44 360.5V356C44 355.203 43.2969 354.5 42.5 354.5H38C37.1562 354.5 36.5 355.203 36.5 356V360.5C36.5 361.344 37.1562 362 38 362ZM38 356H42.5V360.5H38V356Z" fill="black"/>
<path d="M43.9531 1000C41.3281 1000 40.3906 999.484 40.3906 998.359V996.484C39.6406 996.203 38.9844 995.781 38.375 995.359L36.7812 996.25C36.5469 996.391 36.3125 996.438 36.0781 996.438C34.3438 996.438 32.4688 992.125 32.4688 991.375C32.4688 990.859 32.75 990.344 33.2188 990.109L34.8125 989.172C34.8125 988.797 34.7656 988.375 34.7656 988C34.7656 987.578 34.8125 987.203 34.8594 986.828L33.2656 985.938C32.7969 985.703 32.5156 985.188 32.5156 984.672C32.5156 984.109 34.2969 979.562 36.0781 979.562C36.3594 979.562 36.5938 979.656 36.8281 979.797L38.4219 980.688C39.0312 980.266 39.6875 979.844 40.3906 979.562V977.688C40.3906 976.234 42.0781 976 44 976C45.8281 976 47.5156 976.234 47.5156 977.688V979.562C48.2188 979.844 48.875 980.219 49.4844 980.688L51.0781 979.797C51.3125 979.656 51.5469 979.609 51.8281 979.609C53.5156 979.609 55.3906 983.922 55.3906 984.672C55.3906 985.188 55.1094 985.703 54.6406 985.938L53.0469 986.875C53.0938 987.25 53.1406 987.625 53.1406 988C53.1406 988.375 53.0938 988.797 53.0469 989.172L54.6406 990.109C55.1094 990.344 55.3906 990.859 55.3906 991.375C55.3906 991.938 53.6094 996.438 51.8281 996.438C51.5469 996.438 51.3125 996.391 51.0781 996.25L49.4844 995.359C48.875 995.781 48.2188 996.203 47.5156 996.484V998.359C47.5625 999.484 46.625 1000 43.9531 1000ZM38.5625 993.531C40.25 994.984 41.0469 995.125 41.8906 995.453V998.359C42.5938 998.453 43.25 998.5 43.9531 998.5C44.6562 998.5 45.3594 998.453 46.0625 998.312L46.0156 995.453C46.8125 995.172 47.7031 994.938 49.3438 993.531L51.875 994.984C52.7656 993.953 53.4688 992.734 53.8906 991.375L51.4531 989.969C51.5469 989.266 51.6406 988.75 51.6406 988.094C51.6406 987.625 51.5938 987.016 51.4531 986.078L53.9375 984.672C53.4688 983.359 52.7656 982.141 51.8281 981.062L49.3438 982.516C47.7031 981.062 46.9062 980.922 46.0156 980.594V977.688C45.3594 977.594 44.7031 977.547 44 977.547C43.2969 977.547 42.5938 977.594 41.8438 977.734L41.8906 980.594C41.1406 980.875 40.25 981.062 38.5625 982.516L36.0781 981.062C35.1875 982.141 34.4844 983.359 34.0156 984.719L36.5 986.078C36.4062 986.781 36.3125 987.297 36.3125 987.906C36.3125 988.422 36.3594 989.031 36.5 989.922L34.0156 991.375C34.4844 992.641 35.1875 993.859 36.125 994.938L38.5625 993.531ZM44 992.5C41.5156 992.5 39.5 990.484 39.5 988C39.5 985.516 41.5156 983.5 44 983.5C46.4375 983.5 48.5 985.516 48.5 988C48.5 990.484 46.4375 992.5 44 992.5ZM44 985C42.3125 985 41 986.312 41 988C41 989.641 42.3125 991 44 991C45.6406 991 47 989.641 47 988C47 986.312 45.6406 985 44 985Z" fill="black"/>
</g>
<defs>
<filter id="filter0_d_1916_13458" x="-24" y="-24" width="136" height="1072" filterUnits="userSpaceOnUse" color-interpolation-filters="sRGB">
<feFlood flood-opacity="0" result="BackgroundImageFix"/>
<feColorMatrix in="SourceAlpha" type="matrix" values="0 0 0 0 0 0 0 0 0 0 0 0 0 0 0 0 0 0 127 0" result="hardAlpha"/>
<feOffset/>
<feGaussianBlur stdDeviation="12"/>
<feComposite in2="hardAlpha" operator="out"/>
<feColorMatrix type="matrix" values="0 0 0 0 0 0 0 0 0 0 0 0 0 0 0 0 0 0 0.08 0"/>
<feBlend mode="normal" in2="BackgroundImageFix" result="effect1_dropShadow_1916_13458"/>
<feBlend mode="normal" in="SourceGraphic" in2="effect1_dropShadow_1916_13458" result="shape"/>
</filter>
</defs>
</svg>
